<svg width="18px" height="18px" viewBox="0 0 800 800" fill="none" xmlns="http://www.w3.org/2000/svg">
<g clip-path="url(#clip0_20_2)">
<path d="M198.933 798.066C171.514 793.811 145.143 784.424 121.2 770.4C67.2 739.433 26.9 683.967 13.9667 622.867C8.93338 598.967 8.30005 568.767 8.96671 382.633C9.60005 182.333 9.13338 192.667 18.6667 159.667C23.4 143.233 36.5667 115 46.1 100.767C81.2667 48.4332 133 14.8332 197.1 2.66653C209.9 0.233193 228.433 -0.000140656 398.967 -0.000140656C607.333 -0.000140656 600.467 -0.300141 634.5 10.4665C667.544 21.1575 697.693 39.2914 722.625 63.4712C747.556 87.651 766.603 117.231 778.3 149.933C789.3 181.167 789.833 186.167 790.6 268.433L791.267 342.767L778.233 351.7C759.633 364.4 735.233 387.033 701.033 423.367C661.633 465.233 621.833 504.033 601.633 520.266C558 555.3 518.033 575.3 477.433 582.4C456.3 586.066 421.367 584.633 400.7 579.233C382.267 574.433 383.467 573.633 376.5 594.7C370.839 611.37 367.278 628.682 365.9 646.233L364.867 659.8L360 658.8C319.5 650.766 279.367 615.966 263.867 575.466C258.626 562.532 255.693 548.78 255.2 534.833L254.667 523.5L244.367 514.033C222.9 494.366 208.933 470.3 204.533 445.333C197.467 405.566 215.867 360.6 255.8 320.133C297.933 277.367 360.033 243.8 420.9 230.8C442.833 226.133 481.5 224.9 501 228.3C538.933 234.9 569.9 254.067 589.167 282.933C595.233 291.967 595.667 293.267 595.067 301.433C594.912 307.436 592.767 313.217 588.967 317.867C573.467 339.567 527.367 362.8 477.767 373.866C390.267 393.366 334.633 369.133 343.333 315.233C344.2 309.8 344.667 305.1 344.367 304.8C343.3 303.733 334.6 308.267 325.2 314.8C309.233 325.933 295.1 347.6 290.2 368.366C289 373.566 288.533 381.9 289.067 390.033C289.733 401.067 290.833 405.167 295.467 414.567C298.533 420.767 304.633 429.567 309.067 434.2L317.067 442.567L313.867 446.633C304.43 458.998 296.829 472.661 291.3 487.2C285.028 506.744 283.823 527.562 287.8 547.7C291.233 563.066 301.833 584.2 312.433 596.633C320.5 606.133 339 622.1 341.967 622.1C342.767 622.1 343.433 620.5 343.433 618.566C343.467 610.9 349.567 586.133 354.3 574.333C368.4 539.066 399.333 509 448.3 483C456.467 478.666 480.033 467.333 500.7 457.766C546.033 436.766 570.8 423.933 584.4 414.267C623.6 386.5 647.833 345.433 655.733 293.433C658.6 274.433 658.6 238.967 655.733 219.867C643.467 138.6 582.567 83.3332 495.133 74.1999C397.633 63.9665 273.533 139.3 197.067 255.1C159.867 311.433 134.733 373.933 124.167 436.533C120.067 460.8 118.533 505.866 121.067 528.2C127.5 585 148.467 630.8 184.5 666.733C202.545 684.872 223.645 699.687 246.833 710.5C325.767 748.167 413.167 749 490 712.866C523.2 697.233 555.8 673 590.767 637.866C624.767 603.7 647.767 575.2 710.5 489.267C745.167 441.833 772.633 410.333 786.233 402.433L791.233 399.567L790.6 502.6C790 602.366 789.867 606.166 786.5 621.3C766.5 710.566 701.833 775.833 613.333 796.033L597.733 799.6L405.233 799.933C247.433 800.2 210.267 799.866 198.933 798.066Z" fill="white"/>
</g>
<defs>
<clipPath id="clip0_20_2">
<rect width="800" height="800" fill="white"/>
</clipPath>
</defs>
</svg>
